<svg id="Capa_1" enable-background="new 0 0 512 512" height="512" viewBox="0 0 512 512" width="512" xmlns="http://www.w3.org/2000/svg"><g><path d="m201.47 71.28 28.584 187.533-28.584 253.187h-181.47c-11.046 0-20-8.954-20-20v-400.72c0-11.046 8.954-20 20-20z" fill="#f0f9ff"/><g><path d="m402.95 91.28v395.72c0 13.79-11.22 25-25 25h-176.48v-440.72h181.48c11.046 0 20 8.954 20 20z" fill="#d2e6fb"/></g><path d="m159.419 170.386-39.276 38.888-14.481-16.219c-5.517-6.18-15-6.716-21.179-1.199-6.18 5.518-6.716 15-1.199 21.179l25 28c2.739 3.068 6.617 4.876 10.728 5.002.154.005.308.007.462.007 3.946 0 7.741-1.556 10.553-4.341l50.5-50c5.887-5.829 5.934-15.326.105-21.213s-15.326-5.932-21.213-.104z" fill="#92d2ff"/><path d="m223.473 229.361h85c8.284 0 15-6.716 15-15s-6.716-15-15-15h-85c-8.284 0-15 6.716-15 15s6.715 15 15 15z" fill="#7898f2"/><path d="m159.419 264.981-39.276 38.888-14.481-16.219c-5.517-6.179-15-6.716-21.179-1.199s-6.716 15-1.199 21.179l25 28c2.739 3.068 6.617 4.876 10.728 5.002.154.005.308.007.462.007 3.946 0 7.741-1.556 10.553-4.341l50.5-50c5.887-5.829 5.934-15.326.105-21.213s-15.326-5.933-21.213-.104z" fill="#92d2ff"/><path d="m308.473 293.957h-85c-8.284 0-15 6.716-15 15s6.716 15 15 15h85c8.284 0 15-6.716 15-15s-6.716-15-15-15z" fill="#7898f2"/><path d="m159.419 359.576-39.276 38.888-14.481-16.219c-5.517-6.18-15-6.716-21.179-1.199s-6.716 15-1.199 21.179l25 28c2.739 3.068 6.617 4.876 10.728 5.002.154.005.308.007.462.007 3.946 0 7.741-1.556 10.553-4.341l50.5-50c5.887-5.829 5.934-15.326.105-21.213s-15.326-5.932-21.213-.104z" fill="#92d2ff"/><path d="m287.973 388.552h-64.5c-8.284 0-15 6.716-15 15s6.716 15 15 15h64.5c8.284 0 15-6.716 15-15s-6.716-15-15-15z" fill="#7898f2"/><path d="m461.732 227.669c-90.599-15.283-72.265 76.386-72.265 76.386s91.669 18.334 76.386-72.265c-.355-2.106-2.015-3.766-4.121-4.121z" fill="#2ee66b"/><path d="m387.945 188.49c-8.284 0-15 6.716-15 15v110.647c0 8.284 6.716 15 15 15s15-6.716 15-15v-110.647c0-8.284-6.716-15-15-15z" fill="#24b383"/><path d="m388.47 306.08c-14.12-12.9-29.76-19.42-46.63-19.42-40.8 0-77.95 31.79-77.95 66.7v59.4c0 22.4 7.97 44.01 23.04 62.49 18.77 23.01 49.91 36.75 83.31 36.75h18.24l31.187-116.765-31.187-89.165z" fill="#e20059"/><path d="m512 353.36v59.4c0 22.4-7.97 44.01-23.04 62.49-18.77 23.01-49.91 36.75-83.31 36.75h-17.17v-205.93c15.02-11.69 35.32-19.41 53-19.41 38.89 0 70.52 29.92 70.52 66.7z" fill="#b10042"/><g><path d="m201.47 0 24.53 69.5-24.53 61.94h-69.84c-24.9 0-45.16-20.26-45.16-45.16 0-5.26.9-10.31 2.57-15 6.19-17.55 22.95-30.16 42.59-30.16h21.9c3.57-23.25 23.71-41.12 47.94-41.12z" fill="#92d2ff"/></g><path d="m316.47 86.28c0 24.9-20.25 45.16-45.15 45.16h-69.85v-131.44c24.24 0 44.38 17.87 47.94 41.12h21.91c19.64 0 36.39 12.61 42.59 30.16 1.66 4.69 2.56 9.74 2.56 15z" fill="#7898f2"/></g></svg>